<?xml version="1.0" encoding="UTF-8"?>
<svg width="21px" height="16px" viewBox="0 0 21 16" version="1.1" xmlns="http://www.w3.org/2000/svg" xmlns:xlink="http://www.w3.org/1999/xlink">
    <!-- Generator: Sketch 46.2 (44496) - http://www.bohemiancoding.com/sketch -->
    <title>header-open-link~ipad</title>
    <desc>Created with Sketch.</desc>
    <defs></defs>
    <g id="Page-1" stroke="none" stroke-width="1" fill="none" fill-rule="evenodd">
        <path d="M15.712,1 L13.712,1 L7.712,1 C6.612,1 5.712,1.9 5.712,3 C5.712,4.1 6.612,5 7.712,5 L10.884,5 L3.584,12.3 C2.80533333,13.0773333 2.80533333,14.3506667 3.584,15.128 C4.36133333,15.9066667 5.63466667,15.9066667 6.412,15.128 L13.712,7.828 L13.712,11 C13.712,12.1 14.612,13 15.712,13 C16.812,13 17.712,12.1 17.712,11 L17.712,5 L17.712,3 L17.712,1 L15.712,1 Z" id="header-open-link~ipad" fill="#FFFFFF" transform="translate(10.356000, 8.356000) rotate(-315.000000) translate(-10.356000, -8.356000) "></path>
    </g>
</svg>