<?xml version="1.0" encoding="UTF-8"?>
<svg width="210px" height="51px" viewBox="0 0 210 51" version="1.1" xmlns="http://www.w3.org/2000/svg" xmlns:xlink="http://www.w3.org/1999/xlink">
    <!-- Generator: Sketch 49 (51002) - http://www.bohemiancoding.com/sketch -->
    <title>blocknation-logo-final (1) copy</title>
    <desc>Created with Sketch.</desc>
    <defs></defs>
    <g id="Page-1" stroke="none" stroke-width="1" fill="none" fill-rule="evenodd">
        <g id="blocknation-logo-final-(1)-copy">
            <polyline id="Fill-1" fill="#DF4F2A" points="22.0244487 12.7876426 0 25.5034221 0 37.588403 22.0244487 50.3041825 44.0488973 37.588403 44.0488973 25.5034221 22.0244487 12.7876426"></polyline>
            <polyline id="Fill-2" fill="#B02A7E" points="0 25.5034221 22.0244487 38.2192015 44.0488973 25.5034221 22.0244487 12.7876426 0 25.5034221"></polyline>
            <polyline id="Fill-3" fill="#752456" points="0 25.5034221 0 37.588403 22.0244487 50.3041825 22.0244487 38.2192015 0 25.5034221"></polyline>
            <polyline id="Fill-4" fill="#8F256C" points="22.0244487 38.2192015 22.0244487 50.3041825 44.0488973 37.588403 44.0488973 25.5034221 22.0244487 38.2192015"></polyline>
            <polyline id="Fill-5" fill="#DF4F2A" points="22.0244487 12.7876426 0 0.072661597 0 25.5034221 22.0244487 12.7876426"></polyline>
            <polyline id="Fill-6" fill="#DF4F2A" points="22.0244487 12.7876426 44.0488973 0.072661597 44.0488973 25.5034221 22.0244487 12.7876426"></polyline>
            <polyline id="Fill-7" fill="#F7C34C" points="44.0488973 13.630038 44.0488973 0.072661597 32.3072624 6.85095057 44.0488973 13.630038"></polyline>
            <polyline id="Fill-8" fill="#F7C34C" points="0 13.630038 0 0.072661597 11.741635 6.85095057 0 13.630038"></polyline>
            <path d="M68.2939163,29.7058175 C68.7706084,29.7058175 69.2257414,29.6634981 69.6593156,29.5788593 C70.0936882,29.4934221 70.4769582,29.3528897 70.8091255,29.1564639 C71.1404943,28.961635 71.4047909,28.7149049 71.6004183,28.4170722 C71.7952471,28.1192395 71.8934601,27.7487452 71.8934601,27.3063878 C71.8934601,26.7610266 71.7744867,26.3274525 71.5365399,26.0040684 C71.2977947,25.6806844 70.9871863,25.4379468 70.6047148,25.276654 C70.2214449,25.1145627 69.7958555,25.0123574 69.3279468,24.970038 C68.8592395,24.9277186 68.3873384,24.9061597 67.9114449,24.9061597 L65.8178327,24.9061597 L65.8178327,29.5525095 C65.920038,29.5868441 66.0677567,29.6131939 66.2641825,29.6291635 C66.4590114,29.64673 66.6769962,29.6587072 66.9157414,29.6674905 C67.1536882,29.6762738 67.3956274,29.6842586 67.6431559,29.6930418 C67.8890875,29.7018251 68.1062738,29.7058175 68.2939163,29.7058175 Z M67.0938023,22.0971103 C67.3493156,22.0971103 67.6511407,22.0939163 68.000076,22.0851331 C68.3490114,22.0763498 68.6428517,22.0555894 68.881597,22.0212548 C69.5962357,21.7992776 70.1998859,21.498251 70.693346,21.114981 C71.1868061,20.731711 71.4343346,20.2079087 71.4343346,19.5443726 C71.4343346,19.1028137 71.3409125,18.7442966 71.15327,18.4720152 C70.9656274,18.2005323 70.7157034,17.9873384 70.4003042,17.8340304 C70.0849049,17.6807224 69.7319772,17.5785171 69.3407224,17.5274144 C68.9494677,17.4763118 68.5494297,17.4507605 68.1406084,17.4507605 C67.6471483,17.4507605 67.1960076,17.4595437 66.7879848,17.4763118 C66.3791635,17.4938783 66.0557795,17.5194297 65.8178327,17.5529658 L65.8178327,22.0971103 L67.0938023,22.0971103 Z M75.2638403,18.8552852 C75.2638403,19.2984411 75.199962,19.7352091 75.0730038,20.1695817 C74.9444487,20.6039544 74.7440304,21.0079848 74.4725475,21.3824715 C74.2002662,21.7577567 73.8425475,22.0811407 73.4001901,22.3534221 C72.9570342,22.6257034 72.4212548,22.8213308 71.7912548,22.9403042 L71.7912548,23.0936122 C72.353384,23.1447148 72.8803802,23.271673 73.3746388,23.4760837 C73.8680989,23.6804943 74.2976806,23.9655513 74.6641825,24.3312548 C75.0298859,24.6977567 75.3189354,25.1401141 75.5321293,25.6591255 C75.7445247,26.1789354 75.8507224,26.7873764 75.8507224,27.4852471 C75.8507224,28.4202662 75.6343346,29.2203422 75.199962,29.8846768 C74.7663878,30.5482129 74.2002662,31.0935741 73.5023954,31.518365 C72.8045247,31.9447529 72.0044487,32.2593536 71.1021673,32.4637643 C70.1998859,32.6673764 69.2808365,32.7695817 68.345019,32.7695817 C68.038403,32.7695817 67.6335741,32.7695817 67.1321293,32.7695817 C66.6298859,32.7695817 66.093308,32.7568061 65.5239924,32.7312548 C64.9538783,32.7065019 64.374981,32.6673764 63.7880989,32.6162738 C63.2004183,32.5651711 62.6678327,32.4885171 62.1919392,32.3863118 L62.1919392,14.7702662 C62.5496578,14.7191635 62.9536882,14.6680608 63.4048289,14.6169582 C63.8559696,14.5658555 64.3406464,14.5235361 64.8604563,14.4892015 C65.3786692,14.4548669 65.9104563,14.4301141 66.4558175,14.4125475 C67.0003802,14.3957795 67.544943,14.3869962 68.0895057,14.3869962 C68.9742205,14.3869962 69.8429658,14.4508745 70.693346,14.5786312 C71.5453232,14.7063878 72.3110646,14.9363498 72.9913688,15.2685171 C73.6724715,15.5998859 74.2210266,16.055019 74.6386312,16.6339163 C75.0554373,17.2128137 75.2638403,17.9530038 75.2638403,18.8552852 Z" id="Fill-9" fill="#752456"></path>
            <path d="M82.3878707,27.816616 C82.3878707,29.1109506 82.8038783,29.7569202 83.638289,29.7569202 C83.8762357,29.7569202 84.1014068,29.7361597 84.3153992,29.6930418 C84.5269962,29.6507224 84.7785171,29.5788593 85.068365,29.476654 L85.5019392,32.2593536 C85.1609886,32.4126616 84.6811027,32.5611787 84.0598859,32.7065019 C83.4378707,32.8502281 82.7958935,32.9228897 82.1315589,32.9228897 C81.06,32.9228897 80.238365,32.6841445 79.668251,32.208251 C79.0981369,31.7315589 78.8130798,30.9490494 78.8130798,29.8591255 L78.8130798,14.6425095 L82.3878707,14.6425095 L82.3878707,27.816616" id="Fill-10" fill="#752456"></path>
            <path d="M90.2496958,25.8260076 C90.2496958,26.3873384 90.3095817,26.9151331 90.4285551,27.4085932 C90.5475285,27.9020532 90.7311787,28.331635 90.9779087,28.6973384 C91.2238403,29.0638403 91.5440304,29.3568821 91.9352852,29.5788593 C92.3265399,29.800038 92.8032319,29.9102281 93.3653612,29.9102281 C95.4414068,29.9102281 96.4794297,28.5488213 96.4794297,25.8260076 C96.4794297,25.2295437 96.4243346,24.6809886 96.313346,24.1787452 C96.2031559,23.6765019 96.0242966,23.2421293 95.7775665,22.8764259 C95.5308365,22.5107224 95.206654,22.2256654 94.8074144,22.0212548 C94.4065779,21.8168441 93.926692,21.7146388 93.3653612,21.7146388 C92.3944106,21.7146388 91.6326616,22.0380228 91.0801141,22.6847909 C90.5267681,23.3315589 90.2496958,24.378365 90.2496958,25.8260076 Z M86.5734981,25.8260076 C86.5734981,23.6126236 87.1603802,21.87673 88.334943,20.61673 C89.5103042,19.3575285 91.1855133,18.7275285 93.3653612,18.7275285 C94.5055894,18.7275285 95.5012928,18.9063878 96.351673,19.2641065 C97.2028517,19.6210266 97.9095057,20.1192776 98.4708365,20.7572624 C99.0321673,21.3960456 99.4545627,22.145019 99.7348289,23.003384 C100.015894,23.863346 100.156426,24.8039544 100.156426,25.8260076 C100.156426,26.9151331 100.003118,27.8972624 99.6965019,28.7739924 C99.3906844,29.6507224 98.9475285,30.3949049 98.3686312,31.0081369 C97.7905323,31.6205703 97.0798859,32.0892776 96.236692,32.4126616 C95.3950951,32.7352471 94.4377186,32.8973384 93.3653612,32.8973384 C92.2075665,32.8973384 91.2030798,32.7184791 90.3519011,32.3615589 C89.5007224,32.0038403 88.7948669,31.5063878 88.2327376,30.8676046 C87.6714068,30.2296198 87.2538023,29.4806464 86.9823194,28.6206844 C86.710038,27.7615209 86.5734981,26.8296958 86.5734981,25.8260076 Z" id="Fill-11" fill="#752456"></path>
            <path d="M113.177224,31.6972243 C112.599125,32.0892776 111.905247,32.3863118 111.097186,32.5907224 C110.288327,32.7951331 109.449924,32.8973384 108.581977,32.8973384 C107.424183,32.8973384 106.450038,32.7272624 105.658745,32.3863118 C104.867452,32.0461597 104.220684,31.5614829 103.718441,30.9314829 C103.216198,30.3022814 102.854487,29.5573004 102.633308,28.6973384 C102.412129,27.8381749 102.301141,26.8807985 102.301141,25.8260076 C102.301141,23.595057 102.850494,21.8551711 103.948403,20.6039544 C105.046312,19.3527376 106.641673,18.7275285 108.735285,18.7275285 C109.75654,18.7275285 110.594943,18.8081749 111.249696,18.9694677 C111.905247,19.1323574 112.488137,19.339962 112.999163,19.5954753 L112.131217,22.4556274 C111.688061,22.2679848 111.249696,22.128251 110.816122,22.0332319 C110.381749,21.9406084 109.875513,21.8934981 109.297414,21.8934981 C108.224259,21.8934981 107.403422,22.2041065 106.833308,22.8253232 C106.262395,23.4465399 105.978137,24.4462357 105.978137,25.8260076 C105.978137,26.3697719 106.046008,26.8768061 106.182548,27.3447148 C106.31749,27.8126236 106.530684,28.2246388 106.820532,28.5831559 C107.109582,28.940076 107.476084,29.2203422 107.917643,29.4247529 C108.360798,29.6291635 108.879011,29.7313688 109.476274,29.7313688 C110.190913,29.7313688 110.756236,29.6674905 111.17384,29.5405323 C111.590646,29.4127757 111.985894,29.2379087 112.361179,29.01673 L113.177224,31.6972243" id="Fill-12" fill="#752456"></path>
            <polyline id="Fill-13" fill="#752456" points="120.632624 26.9486692 119.406958 26.9486692 119.406958 32.5140684 115.832167 32.5140684 115.832167 14.6425095 119.406958 14.6425095 119.406958 24.9061597 120.530418 24.4214829 123.875247 19.11 127.807757 19.11 124.385475 23.9871103 124.411825 23.9871103 122.777338 25.1608745 124.487681 26.2851331 124.462129 26.2851331 128.394639 32.5140684 124.257719 32.5140684 120.632624 26.9486692"></polyline>
            <polyline id="Fill-14" fill="#752456" points="134.879087 23.195019 133.346806 20.5145247 133.219049 20.5145247 133.627871 23.2213688 133.627871 32.5140684 130.05308 32.5140684 130.05308 14.5147529 132.785475 14.5147529 140.163422 24.0382129 141.619049 26.6420532 141.772357 26.6420532 141.363536 24.0126616 141.363536 14.6425095 144.938327 14.6425095 144.938327 32.6426236 142.20673 32.6426236 134.879087 23.195019"></polyline>
            <path d="M152.980608,29.8591255 C153.779886,29.8591255 154.418669,29.6722814 154.894563,29.2969962 C155.371255,28.923308 155.720989,28.5312548 155.942167,28.1224335 L155.942167,26.5909506 C155.855932,26.556616 155.724183,26.5230798 155.546122,26.4895437 C155.367262,26.4552091 155.171635,26.421673 154.958441,26.3873384 C154.746046,26.3530038 154.532852,26.3274525 154.321255,26.3106844 C154.107262,26.2931179 153.916426,26.2851331 153.74635,26.2851331 C152.8273,26.2851331 152.146198,26.4512167 151.703042,26.7825856 C151.261483,27.1147529 151.039506,27.5275665 151.039506,28.0202281 C151.039506,28.6334601 151.214373,29.093384 151.563308,29.3992015 C151.912243,29.7058175 152.384144,29.8591255 152.980608,29.8591255 Z M148.307909,20.0298479 C149.07365,19.6896958 150.014259,19.4078327 151.129734,19.1874525 C152.243612,18.9662738 153.396616,18.8552852 154.588745,18.8552852 C155.524563,18.8552852 156.311863,18.9662738 156.950646,19.1874525 C157.588631,19.4078327 158.094867,19.7280228 158.469354,20.1440304 C158.84384,20.561635 159.112129,21.0638783 159.274221,21.6507605 C159.435513,22.2376426 159.51616,22.8892015 159.51616,23.6038403 C159.51616,24.4717871 159.482624,25.331749 159.414753,26.1829278 C159.346084,27.0341065 159.312548,27.9355894 159.312548,28.8889734 C159.312548,29.5357414 159.354068,30.1657414 159.439506,30.7789734 C159.524144,31.3906084 159.660684,31.978289 159.848327,32.5404183 L156.937871,32.5404183 L156.350989,30.5482129 L156.044373,30.5482129 C155.601217,31.1446768 155.039087,31.6549049 154.358783,32.0796958 C153.677681,32.5060837 152.800951,32.7184791 151.729392,32.7184791 C151.081825,32.7184791 150.490951,32.625057 149.955171,32.4382129 C149.418593,32.2505703 148.959468,31.9822814 148.576198,31.633346 C148.192928,31.2844106 147.895095,30.8723954 147.6827,30.3949049 C147.469506,29.9190114 147.363308,29.3992015 147.363308,28.8378707 C147.363308,27.3231559 147.869544,26.1789354 148.882015,25.4036122 C149.895285,24.6290875 151.431559,24.2418251 153.490837,24.2418251 C153.96673,24.2418251 154.444221,24.2809506 154.920913,24.3576046 C155.396806,24.4334601 155.728175,24.4893536 155.916616,24.5236882 C155.96692,24.1651711 155.992471,23.8593536 155.992471,23.6038403 C155.992471,22.9578707 155.83038,22.4803802 155.507795,22.1737643 C155.184411,21.8671483 154.579962,21.7146388 153.694449,21.7146388 C152.878403,21.7146388 152.082319,21.8128517 151.307795,22.0084791 C150.53327,22.2041065 149.848175,22.4468441 149.25251,22.7358935 L148.307909,20.0298479 Z" id="Fill-15" fill="#752456"></path>
            <path d="M161.584221,19.11 L163.62673,19.11 L163.62673,17.2726996 L167.201521,16.3273004 L167.201521,19.11 L170.801065,19.11 L170.801065,22.0971103 L167.201521,22.0971103 L167.201521,26.7442586 C167.201521,27.816616 167.30692,28.5863498 167.520913,29.0542586 C167.733308,29.5229658 168.154106,29.7569202 168.784106,29.7569202 C169.175361,29.7569202 169.507529,29.7273764 169.77981,29.6674905 C170.052091,29.608403 170.341939,29.5109886 170.647757,29.3744487 L171.388745,32.054943 C170.843384,32.2936882 170.218175,32.4980989 169.511521,32.6673764 C168.804867,32.8374525 168.12057,32.9228897 167.457034,32.9228897 C166.129163,32.9228897 165.159011,32.5947148 164.545779,31.939962 C163.933346,31.2844106 163.62673,30.2336122 163.62673,28.7867681 L163.62673,22.0971103 L161.584221,22.0971103 L161.584221,19.11" id="Fill-16" fill="#752456"></path>
            <path d="M173.967034,32.5140684 L177.541825,32.5140684 L177.541825,19.11 L173.967034,19.11 L173.967034,32.5140684 Z M173.430456,16.2250951 C173.430456,15.6805323 173.626084,15.2253992 174.018935,14.8596958 C174.409392,14.4939924 174.962738,14.3111407 175.678175,14.3111407 C176.409582,14.3111407 176.987681,14.4979848 177.414068,14.8724715 C177.839658,15.2461597 178.052053,15.6980989 178.052053,16.2250951 C178.052053,16.7193536 177.839658,17.1441445 177.414068,17.5026616 C176.987681,17.8595817 176.409582,18.0376426 175.678175,18.0376426 C174.962738,18.0376426 174.409392,17.8595817 174.018935,17.5026616 C173.626084,17.1441445 173.430456,16.7193536 173.430456,16.2250951 Z" id="Fill-17" fill="#752456"></path>
            <path d="M184.026274,25.8260076 C184.026274,26.3873384 184.085361,26.9151331 184.204335,27.4085932 C184.324106,27.9020532 184.506958,28.331635 184.753688,28.6973384 C185.000418,29.0638403 185.31981,29.3568821 185.711065,29.5788593 C186.102319,29.800038 186.579011,29.9102281 187.141141,29.9102281 C189.217985,29.9102281 190.256008,28.5488213 190.256008,25.8260076 C190.256008,25.2295437 190.200114,24.6809886 190.089924,24.1787452 C189.978935,23.6765019 189.800076,23.2421293 189.554144,22.8764259 C189.306616,22.5107224 188.983232,22.2256654 188.583992,22.0212548 C188.183156,21.8168441 187.702471,21.7146388 187.141141,21.7146388 C186.17019,21.7146388 185.408441,22.0380228 184.855894,22.6847909 C184.302548,23.3315589 184.026274,24.378365 184.026274,25.8260076 Z M180.349278,25.8260076 C180.349278,23.6126236 180.936958,21.87673 182.110722,20.61673 C183.286084,19.3575285 184.962091,18.7275285 187.141141,18.7275285 C188.281369,18.7275285 189.277072,18.9063878 190.127452,19.2641065 C190.97943,19.6210266 191.686084,20.1192776 192.247414,20.7572624 C192.808745,21.3960456 193.230342,22.145019 193.511407,23.003384 C193.791673,23.863346 193.932205,24.8039544 193.932205,25.8260076 C193.932205,26.9151331 193.779696,27.8972624 193.47308,28.7739924 C193.166464,29.6507224 192.723308,30.3949049 192.145209,31.0081369 C191.566312,31.6205703 190.856464,32.0892776 190.01327,32.4126616 C189.170875,32.7352471 188.213498,32.8973384 187.141141,32.8973384 C185.983346,32.8973384 184.978859,32.7184791 184.128479,32.3615589 C183.276502,32.0038403 182.571445,31.5063878 182.008517,30.8676046 C181.447186,30.2296198 181.03038,29.4806464 180.758099,28.6206844 C180.485817,27.7615209 180.349278,26.8296958 180.349278,25.8260076 Z" id="Fill-18" fill="#752456"></path>
            <path d="M205.880646,32.5140684 L205.880646,25.1608745 C205.880646,24.0038783 205.701787,23.1694677 205.344867,22.6592395 C204.987148,22.1490114 204.357148,21.8934981 203.455665,21.8934981 C202.689125,21.8934981 202.038365,22.1019011 201.502586,22.5187072 C200.966008,22.9363118 200.596312,23.4673004 200.391901,24.1148669 C200.391901,25.5106084 200.395894,26.9103422 200.404677,28.3148669 C200.412662,29.7185932 200.416654,31.118327 200.416654,32.5140684 L196.842662,32.5140684 L196.842662,19.11 L199.650913,19.11 L200.034183,21.0255513 L200.416654,21.0255513 C200.85981,20.3963498 201.446692,19.854981 202.178897,19.4038403 C202.910304,18.9534981 203.864487,18.7275285 205.038251,18.7275285 C205.753688,18.7275285 206.386882,18.8169582 206.940228,18.9958175 C207.492776,19.1738783 207.9527,19.4804943 208.319202,19.9148669 C208.684905,20.3484411 208.965171,20.9321293 209.161597,21.6643346 C209.356426,22.3957414 209.454639,23.3147909 209.454639,24.4214829 L209.454639,32.5140684 L205.880646,32.5140684" id="Fill-19" fill="#752456"></path>
        </g>
    </g>
</svg>